HIERARCHY
ROOT Hips
{
  OFFSET -31.5692 30.0904 122.763
  CHANNELS 6 Xposition Yposition Zposition Zrotation Xrotation Yrotation
  JOINT LeftUpLeg
  {
    OFFSET 8.64259 1.95398 -2.38835
    CHANNELS 3 Zrotation Xrotation Yrotation
    JOINT LeftLeg
    {
      OFFSET 43.7702 0 0
      CHANNELS 3 Zrotation Xrotation Yrotation
      JOINT LeftFoot
      {
        OFFSET 40.6238 0 0
        CHANNELS 3 Zrotation Xrotation Yrotation
        JOINT LeftToeBase
        {
          OFFSET 12.7242 0 0
          CHANNELS 3 Zrotation Xrotation Yrotation
          End Site
          {
            OFFSET 0 0 0
          }
        }
      }
    }
  }
  JOINT RightUpLeg
  {
    OFFSET -8.2249 1.95398 -2.59336
    CHANNELS 3 Zrotation Xrotation Yrotation
    JOINT RightLeg
    {
      OFFSET 43.5653 0 0
      CHANNELS 3 Zrotation Xrotation Yrotation
      JOINT RightFoot
      {
        OFFSET 40.6238 0 0
        CHANNELS 3 Zrotation Xrotation Yrotation
        JOINT RightToeBase
        {
          OFFSET 12.7242 0 0
          CHANNELS 3 Zrotation Xrotation Yrotation
          End Site
          {
            OFFSET 0 0 0
          }
        }
      }
    }
  }
  JOINT Spine
  {
    OFFSET 0.165834 0.87714 6.61349
    CHANNELS 3 Zrotation Xrotation Yrotation
    JOINT Spine1
    {
      OFFSET 7.38963 1.71661e-005 0
      CHANNELS 3 Zrotation Xrotation Yrotation
      JOINT Spine2
      {
        OFFSET 11.9445 1.14441e-005 0
        CHANNELS 3 Zrotation Xrotation Yrotation
        JOINT Spine3
        {
          OFFSET 14.7254 4.19617e-005 0
          CHANNELS 3 Zrotation Xrotation Yrotation
          JOINT Spine4
          {
            OFFSET 10.9679 0 0
            CHANNELS 3 Zrotation Xrotation Yrotation
            JOINT RightShoulder
            {
              OFFSET 2.46616 -1.6653 3.69651
              CHANNELS 3 Zrotation Xrotation Yrotation
              JOINT RightArm
              {
                OFFSET 13.0012 0 0
                CHANNELS 3 Zrotation Xrotation Yrotation
                JOINT RightForeArm
                {
                  OFFSET 28.7848 1.62311e-005 0
                  CHANNELS 3 Zrotation Xrotation Yrotation
                  JOINT RightHand
                  {
                    OFFSET 26.5688 1.62095e-005 0
                    CHANNELS 3 Zrotation Xrotation Yrotation
                    End Site
                    {
                      OFFSET 0 0 0
                    }
                  }
                }
              }
            }
            JOINT LeftShoulder
            {
              OFFSET 2.38034 -1.29275 -3.7523
              CHANNELS 3 Zrotation Xrotation Yrotation
              JOINT LeftArm
              {
                OFFSET 16.3182 6.07031e-005 0
                CHANNELS 3 Zrotation Xrotation Yrotation
                JOINT LeftForeArm
                {
                  OFFSET 27.0901 0 0
                  CHANNELS 3 Zrotation Xrotation Yrotation
                  JOINT LeftHand
                  {
                    OFFSET 24.5451 1.51738e-005 0
                    CHANNELS 3 Zrotation Xrotation Yrotation
                    End Site
                    {
                      OFFSET 0 0 0
                    }
                  }
                }
              }
            }
            JOINT Neck
            {
              OFFSET 5.0226 -0.0266342 0
              CHANNELS 3 Zrotation Xrotation Yrotation
              JOINT Head
              {
                OFFSET 6.69364 2.86102e-005 0
                CHANNELS 3 Zrotation Xrotation Yrotation
                End Site
                {
                  OFFSET 0 0 0
                }
              }
            }
          }
        }
      }
    }
  }
}
MOTION
Frames:	10
Frame Time:	0.0416667
37.6384 92.1995 -280.374 64.7346 -73.445 66.3404 -166.596 -9.5618 97.2881 -25.8556 20.2653 -0.207183 74.1246 12.3135 5.73897 56.2165 12.0969 1.87928 177.458 51.6488 95.195 -82.0292 4.7696 -2.48291 80.5401 -10.743 -3.97599 14.3233 3.94678 8.46987 -2.40259 7.75266 -90.6518 11.3591 -5.08472 -0.788238 -0.302047 -5.11447 -0.563114 -22.904 -4.61231 -2.28298 -2.89135 -4.61231 -2.28298 96.5682 -14.2658 -97.4126 45.1195 -10.5567 44.5654 -31.946 -31.407 -68.6125 -33.1152 3.83183 -28.3732 -87.2437 -30.9224 78.8409 -8.75758 -10.498 -55.3594 62.6899 25.9395 -73.8031 64.8325 -19.5841 -23.5894 33.6699 1.81785 -9.59984 -13.6348 5.38645 5.89406 
38.3512 93.6831 -272.218 67.1533 -77.4457 68.3295 -167.06 -18.2855 96.8926 -18.1007 19.4612 0.641027 59.5997 1.61001 4.80743 59.9933 13.7867 -2.32399 -179.671 50.0137 93.9516 -70.0717 1.72775 -2.62216 76.7049 -8.68025 -3.80397 15.9013 3.54976 7.7599 -2.56382 7.9106 -90.7622 11.0393 -5.457 -0.992761 -0.620313 -5.49538 -0.75092 -23.2306 -4.90583 -2.59048 -3.21799 -4.90582 -2.59047 95.8564 -13.3323 -99.6816 42.6959 -10.3696 47.3533 -30.2084 -30.7093 -67.2985 -31.0376 3.67958 -28.9786 -86.905 -30.0906 79.2712 -7.89501 -14.5077 -52.1089 56.5234 23.8964 -72.5686 68.7677 -21.7526 -24.8092 36.0168 4.38628 -7.84306 -17.5928 6.98644 6.13233 
38.8056 94.9231 -263.278 58.3009 -79.6992 61.8623 -167.605 -21.1553 98.0314 -17.0236 19.027 2.84422 52.0137 -4.96844 2.07135 38.3297 4.94572 -3.93412 -178.714 48.284 96.0153 -55.6293 -3.46375 -1.69558 71.6213 -6.64914 -4.46452 17.881 2.50455 8.55536 -2.51152 7.87834 -91.2387 11.0756 -5.57378 -1.92688 -0.584482 -5.65317 -1.67903 -23.1822 -4.73685 -3.51548 -3.16954 -4.73686 -3.51548 95.409 -11.8995 -101.513 42.1125 -9.66474 49.3561 -27.4198 -28.8352 -65.7666 -30.2764 4.35796 -31.5874 -86.102 -29.7704 80.7417 -6.86713 -15.119 -51.2723 57.3842 24.912 -72.7336 65.8987 -21.8069 -26.6549 37.8115 6.60225 -5.8383 -20.4858 8.10731 5.98976 
39.2535 95.6226 -254.56 51.7971 -80.6254 56.1644 -168.965 -22.0935 97.1367 -21.5625 20.8694 4.82658 53.5919 -4.85622 2.83848 17.9223 -4.27135 -2.18135 -178.576 45.5486 96.3173 -41.9195 -9.91823 -0.757085 69.4872 -6.23579 -3.12118 17.3121 2.53944 9.16602 -2.49657 7.80151 -91.5365 11.211 -5.68301 -2.50017 -0.449455 -5.78751 -2.24701 -23.038 -4.66908 -4.09436 -3.02538 -4.66909 -4.09436 94.537 -11.0282 -104.384 42.3406 -7.96425 51.5727 -26.2138 -27.3927 -65.3368 -32.5396 5.4613 -33.5503 -86.1559 -30.3702 80.7841 -3.95186 -12.5917 -49.6545 54.1746 24.6741 -71.5565 54.2083 -28.2836 -45.1142 36.7765 8.27858 -4.19714 -21.0963 8.86637 5.97855 
39.4717 95.5095 -246.401 47.5959 -81.4118 51.2043 -169.458 -22.8073 95.8331 -27.6653 21.9798 4.5114 59.7462 -0.18467 5.00904 10.0981 -6.80537 -4.67364 -178.024 42.9237 95.916 -31.1962 -15.6453 -0.647018 68.6702 -6.49075 -3.22872 16.961 2.15916 10.82 -2.38576 7.68355 -91.5017 11.4509 -5.44786 -2.43864 -0.21041 -5.54988 -2.19597 -22.7937 -4.4633 -3.96472 -2.78104 -4.4633 -3.96472 93.7634 -12.9265 -105.568 41.3264 -6.20864 51.585 -22.7431 -24.9861 -63.3219 -29.2222 5.04636 -34.0607 -86.2157 -30.2178 80.6315 -3.78313 -6.71018 -48.8832 52.5338 24.9417 -68.9281 55.0525 -27.4642 -43.3804 34.0346 8.12983 -5.2955 -19.2869 8.92534 8.10627 
39.4565 95.0604 -238.55 51.5989 -82.6061 53.6848 -169.133 -22.6852 95.0943 -35.3383 20.4898 3.486 61.723 1.25883 4.42918 13.9291 -4.87484 -4.93067 -178.876 40.2491 96.0834 -26.6704 -17.3434 -0.131626 67.9385 -6.2452 -4.13188 17.9872 1.6126 11.3503 -2.28373 7.6925 -91.348 11.4431 -5.1731 -2.16032 -0.219012 -5.26314 -1.93006 -22.8008 -4.28477 -3.61671 -2.78814 -4.28477 -3.6167 93.2899 -15.928 -105.347 39.4715 -4.03328 49.0134 -21.9291 -23.3673 -62.4258 -29.7537 5.16855 -33.365 -87.0326 -32.7708 79.709 -2.4919 -0.562048 -47.1511 52.3865 25.5087 -68.4468 66.1122 -21.7803 -26.933 32.0122 7.91354 -4.9251 -18.3286 8.5854 7.89367 
39.2367 94.4999 -230.747 64.346 -83.818 64.8837 -168.769 -20.5167 94.7302 -46.2721 17.1602 2.97632 57.8901 -2.00225 3.15718 24.6438 -0.00919741 -5.44381 179.739 38.3674 96.5607 -28.8871 -15.1847 0.467477 66.423 -4.60635 -4.25183 19.7491 2.63807 5.56605 -2.22184 7.81121 -91.126 11.2179 -4.94552 -1.75511 -0.444478 -5.01795 -1.53529 -23.0281 -4.18933 -3.16202 -3.01548 -4.18931 -3.16201 92.4579 -20.1619 -105.467 36.8878 -1.61679 44.6485 -25.0108 -24.2429 -62.9646 -34.1264 6.1515 -33.4985 -87.9464 -36.8926 79.0686 -0.94291 5.72646 -44.1996 54.2742 26.4759 -66.9649 64.6335 -20.2485 -25.4691 31.7974 7.59643 -4.44493 -18.7706 8.17901 6.87226 
39.0809 93.8149 -222.788 80.59 -84.7553 81.1096 -166.675 -16.1849 96.682 -58.6067 15.8273 2.43998 55.5201 -4.26962 6.90315 29.674 2.21493 -5.73206 178.282 37.3341 97.7084 -35.6784 -16.7442 1.09832 61.388 0.0890242 -3.92746 15.8994 3.62822 7.43532 -2.02995 7.9178 -91.0525 11.008 -4.52859 -1.66128 -0.655913 -4.59729 -1.46002 -23.2307 -3.8199 -2.94676 -3.21804 -3.81991 -2.94676 91.7562 -24.1111 -105.414 35.2093 1.33874 39.4594 -26.8611 -24.2634 -62.921 -35.789 6.10291 -31.9711 -89.3746 -41.3755 77.7372 -0.949637 11.7332 -39.8668 54.7816 27.2965 -65.0307 60.6002 -20.4957 -28.2241 30.1088 6.91072 -4.47061 -17.724 7.5592 6.79011 
38.7276 92.6741 -215.081 95.7544 -85.1766 96.5864 -164.975 -10.2153 98.9398 -71.0703 9.51973 2.63584 59.2591 -2.36207 6.10239 26.7881 1.10762 -5.95105 175.965 37.3928 99.8448 -47.9849 -18.0427 2.07737 69.005 -4.90873 -5.30652 7.21427 6.95621 8.25157 -1.79954 7.95096 -91.0936 10.9409 -4.08862 -1.78836 -0.724568 -4.16335 -1.60644 -23.2875 -3.36221 -2.93516 -3.27485 -3.36221 -2.93516 90.863 -26.5874 -106.333 34.3114 5.36178 33.8526 -26.2035 -22.2269 -61.6252 -37.4458 6.55811 -31.4647 -90.8037 -47.2935 76.8945 -0.972343 16.3312 -34.1034 54.4663 28.5404 -64.6381 64.168 -17.6752 -21.9516 26.883 7.18209 -1.14746 -14.4986 6.90318 4.31415 
37.9669 91.7776 -207.995 106.535 -85.4983 109.417 -164.312 -2.06449 101.846 -82.7351 5.68947 3.68859 63.004 -0.228601 6.2362 27.1541 1.57266 -6.90262 174.506 34.574 103.473 -53.7763 -17.9595 2.72379 72.5203 -8.51039 -7.54197 14.4754 3.69761 8.99702 -1.40139 8.02821 -91.3502 10.7801 -3.41343 -2.37099 -0.88822 -3.51445 -2.2184 -23.4285 -2.54339 -3.28702 -3.41585 -2.5434 -3.28703 90.968 -29.1795 -105.134 34.117 7.96293 25.9843 -26.7791 -20.7441 -61.8797 -36.6757 6.23049 -30.6272 -90.9504 -50.4829 77.4207 -5.68338 20.0279 -28.402 52.6106 29.9426 -63.9137 60.393 -17.6134 -24.1309 24.8617 6.56746 1.02541 -11.0087 5.72723 3.28125 
